<mxfile host="Electron" modified="2023-12-02T11:56:32.909Z" agent="Mozilla/5.0 (Windows NT 10.0; Win64; x64) AppleWebKit/537.36 (KHTML, like Gecko) draw.io/22.1.2 Chrome/114.0.5735.289 Electron/25.9.4 Safari/537.36" etag="ZtK_O6RkRX0JVDAAQlMD" version="22.1.2" type="device">
  <diagram name="Страница — 1" id="zH64PmPLGniPuNXSmfMY">
    <mxGraphModel dx="1036" dy="614" grid="1" gridSize="10" guides="1" tooltips="1" connect="1" arrows="1" fold="1" page="1" pageScale="1" pageWidth="827" pageHeight="1169" math="0" shadow="0">
      <root>
        <mxCell id="0" />
        <mxCell id="1" parent="0" />
        <mxCell id="E9nMk2wKhzKFJiL9fgCt-12" style="edgeStyle=orthogonalEdgeStyle;rounded=0;orthogonalLoop=1;jettySize=auto;html=1;exitX=1;exitY=0.5;exitDx=0;exitDy=0;" edge="1" parent="1" source="E9nMk2wKhzKFJiL9fgCt-1" target="E9nMk2wKhzKFJiL9fgCt-5">
          <mxGeometry relative="1" as="geometry" />
        </mxCell>
        <mxCell id="E9nMk2wKhzKFJiL9fgCt-14" style="edgeStyle=orthogonalEdgeStyle;rounded=0;orthogonalLoop=1;jettySize=auto;html=1;entryX=0;entryY=0.5;entryDx=0;entryDy=0;exitX=0;exitY=0.5;exitDx=0;exitDy=0;" edge="1" parent="1" source="E9nMk2wKhzKFJiL9fgCt-1" target="E9nMk2wKhzKFJiL9fgCt-4">
          <mxGeometry relative="1" as="geometry" />
        </mxCell>
        <mxCell id="E9nMk2wKhzKFJiL9fgCt-18" value="" style="edgeStyle=orthogonalEdgeStyle;rounded=0;orthogonalLoop=1;jettySize=auto;html=1;" edge="1" parent="1" source="E9nMk2wKhzKFJiL9fgCt-1" target="E9nMk2wKhzKFJiL9fgCt-17">
          <mxGeometry relative="1" as="geometry" />
        </mxCell>
        <mxCell id="E9nMk2wKhzKFJiL9fgCt-1" value="if(array1[i].Length &amp;lt;= 3)" style="rhombus;whiteSpace=wrap;html=1;" vertex="1" parent="1">
          <mxGeometry x="320" y="380" width="240" height="110" as="geometry" />
        </mxCell>
        <mxCell id="E9nMk2wKhzKFJiL9fgCt-2" value="новый массив из строк&lt;br&gt;AnoArray" style="rounded=1;whiteSpace=wrap;html=1;" vertex="1" parent="1">
          <mxGeometry x="390" y="50" width="120" height="60" as="geometry" />
        </mxCell>
        <mxCell id="E9nMk2wKhzKFJiL9fgCt-7" style="edgeStyle=orthogonalEdgeStyle;rounded=0;orthogonalLoop=1;jettySize=auto;html=1;" edge="1" parent="1" source="E9nMk2wKhzKFJiL9fgCt-3" target="E9nMk2wKhzKFJiL9fgCt-4">
          <mxGeometry relative="1" as="geometry" />
        </mxCell>
        <mxCell id="E9nMk2wKhzKFJiL9fgCt-3" value="string[] array1&lt;br&gt;string[] array1&lt;br&gt;count = 0" style="shape=parallelogram;perimeter=parallelogramPerimeter;whiteSpace=wrap;html=1;fixedSize=1;" vertex="1" parent="1">
          <mxGeometry x="380" y="160" width="120" height="60" as="geometry" />
        </mxCell>
        <mxCell id="E9nMk2wKhzKFJiL9fgCt-11" style="edgeStyle=orthogonalEdgeStyle;rounded=0;orthogonalLoop=1;jettySize=auto;html=1;entryX=0.5;entryY=0;entryDx=0;entryDy=0;" edge="1" parent="1" source="E9nMk2wKhzKFJiL9fgCt-4" target="E9nMk2wKhzKFJiL9fgCt-1">
          <mxGeometry relative="1" as="geometry" />
        </mxCell>
        <mxCell id="E9nMk2wKhzKFJiL9fgCt-4" value="for (int i = 0; i &amp;lt; array1.Length; i++)" style="shape=hexagon;perimeter=hexagonPerimeter2;whiteSpace=wrap;html=1;fixedSize=1;" vertex="1" parent="1">
          <mxGeometry x="380" y="260" width="120" height="80" as="geometry" />
        </mxCell>
        <mxCell id="E9nMk2wKhzKFJiL9fgCt-13" style="edgeStyle=orthogonalEdgeStyle;rounded=0;orthogonalLoop=1;jettySize=auto;html=1;entryX=1;entryY=0.5;entryDx=0;entryDy=0;exitX=0.5;exitY=0;exitDx=0;exitDy=0;" edge="1" parent="1" source="E9nMk2wKhzKFJiL9fgCt-5" target="E9nMk2wKhzKFJiL9fgCt-4">
          <mxGeometry relative="1" as="geometry" />
        </mxCell>
        <mxCell id="E9nMk2wKhzKFJiL9fgCt-5" value="&lt;div&gt;array2[count] = array1[i];&lt;/div&gt;&lt;div&gt;&amp;nbsp; &amp;nbsp; &amp;nbsp; &amp;nbsp; count++;&lt;/div&gt;" style="rounded=0;whiteSpace=wrap;html=1;" vertex="1" parent="1">
          <mxGeometry x="560" y="320" width="120" height="60" as="geometry" />
        </mxCell>
        <mxCell id="E9nMk2wKhzKFJiL9fgCt-6" style="edgeStyle=orthogonalEdgeStyle;rounded=0;orthogonalLoop=1;jettySize=auto;html=1;entryX=0.58;entryY=0.023;entryDx=0;entryDy=0;entryPerimeter=0;" edge="1" parent="1" source="E9nMk2wKhzKFJiL9fgCt-2" target="E9nMk2wKhzKFJiL9fgCt-3">
          <mxGeometry relative="1" as="geometry" />
        </mxCell>
        <mxCell id="E9nMk2wKhzKFJiL9fgCt-15" value="Yes" style="text;html=1;strokeColor=none;fillColor=none;align=center;verticalAlign=middle;whiteSpace=wrap;rounded=0;" vertex="1" parent="1">
          <mxGeometry x="550" y="400" width="60" height="30" as="geometry" />
        </mxCell>
        <mxCell id="E9nMk2wKhzKFJiL9fgCt-16" value="No" style="text;html=1;strokeColor=none;fillColor=none;align=center;verticalAlign=middle;whiteSpace=wrap;rounded=0;" vertex="1" parent="1">
          <mxGeometry x="300" y="260" width="60" height="30" as="geometry" />
        </mxCell>
        <mxCell id="E9nMk2wKhzKFJiL9fgCt-17" value="AnoArray(array1, array2)" style="rounded=1;whiteSpace=wrap;html=1;" vertex="1" parent="1">
          <mxGeometry x="380" y="540" width="120" height="60" as="geometry" />
        </mxCell>
      </root>
    </mxGraphModel>
  </diagram>
</mxfile>
